<?xml version="1.0" encoding="utf-8"?>
<!-- Generator: Adobe Illustrator 24.2.1, SVG Export Plug-In . SVG Version: 6.00 Build 0)  -->
<svg version="1.1" id="Layer_1" xmlns="http://www.w3.org/2000/svg" xmlns:xlink="http://www.w3.org/1999/xlink" x="0px" y="0px"
	 viewBox="0 0 990 390" style="enable-background:new 0 0 990 390;" xml:space="preserve">
<style type="text/css">
	.st0{fill:#FFFFFF;}
</style>
<g>
	<path class="st0" d="M196.4,253.1c25.4,0,46-20.6,46-46.1c0-25.5-20.6-46.1-46-46.1c-25.4,0-46,20.6-46,46.1
		C150.4,232.4,171,253.1,196.4,253.1z M157.9,207c0-6.5,5.3-11.8,11.7-11.8c6.5,0,11.7,5.3,11.7,11.8c0,6.5-5.3,11.7-11.7,11.7
		C163.2,218.7,157.9,213.5,157.9,207z"/>
	<path class="st0" d="M340.6,160.2h14.3c8.3,0,12.3-1.2,15-4.6c2.9-3.5,3.3-7.7,3.3-16.3v-12.1c0-4,0-9.9-2-13.8
		c-0.9-1.8-3.5-5.3-9-6.5c-1.8-0.4-4-0.4-4.6-0.4h-34.2v92.1h17.1V160.2z M340.6,120h8.3c0.6,0,4.3-0.5,6.3,2
		c1.7,2.1,1.3,4.8,1.3,7.4v9.4c0,1.8,0,4.8-1.2,6.4c-1,1.4-3,1.8-6.5,1.8h-8.2V120z"/>
	<path class="st0" d="M433.4,178.8v-51.2c0-6.4-0.7-9.2-2.1-12.3c-2.7-5.3-9.8-10.8-23.1-10.8c-10.3,0-16.7,3-20.1,6
		c-6.1,5.5-5.7,14.7-5.7,16.7v51.6c0,3.4,0.4,7.3,1.9,10.6c0.5,1.3,1.8,3.5,4.6,5.7c5.5,4.4,12.4,5.4,19.2,5.4c7,0,14.5-1,20-6.1
		C432.5,190,433.4,184.7,433.4,178.8z M413.3,185.6c-2.1,1.4-4.6,1.6-5.3,1.6c-0.8,0-4.9,0-6.9-2.7c-1.7-2.4-1.6-5.7-1.6-8.5v-46.5
		c0-3.8-0.5-7.8,3.2-10.4c2.1-1.6,4.6-1.7,5.5-1.7c4.3,0,6.3,2.3,7,4c1.4,2.7,1,6.9,1,7.4v47.6C416.3,179.7,416.5,183.4,413.3,185.6
		z"/>
	<polygon class="st0" points="487.5,184.6 462.6,184.6 462.6,106.5 445.6,106.5 445.6,198.5 487.5,198.5 	"/>
	<rect x="494.5" y="106.5" class="st0" width="16.8" height="92.1"/>
	<polygon class="st0" points="569.2,106.5 518.1,106.5 518.1,119.8 535.1,119.8 535.1,198.5 552.1,198.5 552.1,119.8 569.2,119.8 	
		"/>
	<polygon class="st0" points="593,156 619,156 619,142.1 593,142.1 593,120.4 620.6,120.4 620.6,106.5 576,106.5 576,198.5 
		621.9,198.5 621.9,184.3 593,184.3 	"/>
	<polygon class="st0" points="617.1,81.6 596.9,81.6 588.5,99 600.5,99 	"/>
	<path class="st0" d="M678.6,188c1.2-3.4,1.3-7.3,1.3-11v-13h-16.7v12c0,7-0.6,11.3-8.2,11.3c-7,0-8.3-4.4-8.3-10.4v-49.3
		c0-6,1.3-10.1,7.8-10.1c7.6,0,8.7,3.8,8.7,10.8V140h16.7v-14.1c0-5.6-0.1-7.4-1.6-10.4c-1.2-2.7-3.3-5.1-5.7-6.8
		c-5.1-3.4-11.3-4.2-17.2-4.2c-10.2,0-15.2,2.3-19,5.3c-4.7,3.8-6.2,8.3-6.5,14.2c-0.1,1.6-0.3,3.3-0.3,4.8V179c0,3.4,0,6.3,1.3,9.6
		c2.7,6.6,8.7,9.6,15.5,11c1.2,0.3,4.8,0.9,8.8,0.9C657.1,200.5,674.2,200.7,678.6,188z"/>
	<polygon class="st0" points="728.4,174 711.8,106.5 690.1,106.5 690.1,198.5 706,198.5 704.5,129.5 720.8,198.5 742.2,198.5 
		742.2,106.5 726.7,106.5 	"/>
	<rect x="755.2" y="106.5" class="st0" width="16.8" height="92.1"/>
	<path class="st0" d="M827.3,108.7c-5.1-3.4-11.4-4.2-17.2-4.2c-10.2,0-15.3,2.3-19,5.3c-4.7,3.8-6.2,8.3-6.5,14.2
		c-0.1,1.6-0.3,3.3-0.3,4.8V179c0,3.4,0,6.3,1.3,9.6c2.7,6.6,8.7,9.6,15.5,11c1.2,0.3,4.8,0.9,8.8,0.9c1.9,0,19,0.3,23.4-12.5
		c1.2-3.4,1.3-7.3,1.3-11v-13h-16.7v12c0,7-0.6,11.3-8.2,11.3c-7,0-8.3-4.4-8.3-10.4v-49.3c0-6,1.3-10.1,7.8-10.1
		c7.5,0,8.7,3.8,8.7,10.8V140h16.7v-14.1c0-5.6-0.1-7.4-1.6-10.4C831.9,112.7,829.8,110.4,827.3,108.7z"/>
	<path class="st0" d="M892.9,115.3c-2.8-5.3-9.8-10.8-23.1-10.8c-10.3,0-16.7,3-20.1,6c-6.1,5.5-5.7,14.7-5.7,16.7v51.6
		c0,3.4,0.4,7.3,2,10.6c0.5,1.3,1.8,3.5,4.5,5.7c5.5,4.4,12.4,5.4,19.2,5.4c7,0,14.5-1,19.9-6.1c4.4-4.3,5.3-9.7,5.3-15.5v-51.2
		C895,121.2,894.4,118.4,892.9,115.3z M874.9,185.6c-2.1,1.4-4.6,1.6-5.4,1.6c-0.8,0-5,0-6.9-2.7c-1.7-2.4-1.6-5.7-1.6-8.5v-46.5
		c0-3.8-0.5-7.8,3.2-10.4c2.1-1.6,4.6-1.7,5.5-1.7c4.3,0,6.3,2.3,7,4c1.5,2.7,1,6.9,1,7.4v47.6C877.9,179.7,878.1,183.4,874.9,185.6
		z"/>
	<path class="st0" d="M351.8,252c-3.2-2.7-6.6-2.9-8.2-2.9h-20.1v59.3h17.6c3.3,0,6.4-0.1,9.4-1.9c2.3-1.3,5.2-4.5,5.5-10.8
		c0.1-1.1,0.1-2.2,0.1-3.3v-27.7C356.2,259.9,355.8,255.5,351.8,252z M345.2,263.8v29.6c0,2.9-0.2,5.6-3.8,6.2
		c-1,0.2-2.1,0.2-3.1,0.2h-3.9v-42h4.3c1.7,0,3.5-0.2,5,1C345.3,260.1,345.2,261.9,345.2,263.8z"/>
	<polygon class="st0" points="374.7,281 391.5,281 391.5,272 374.7,272 374.7,258.1 392.5,258.1 392.5,249.1 363.8,249.1 
		363.8,308.4 393.4,308.4 393.4,299.3 374.7,299.3 	"/>
	<polygon class="st0" points="444.9,216.4 428,216.4 428,308.4 469.8,308.4 469.8,294.5 444.9,294.5 	"/>
	<polygon class="st0" points="493.8,265.9 519.9,265.9 519.9,252 493.8,252 493.8,230.3 521.4,230.3 521.4,216.4 476.9,216.4 
		476.9,308.4 522.7,308.4 522.7,294.2 493.8,294.2 	"/>
	<rect x="531.2" y="216.4" class="st0" width="16.8" height="92"/>
	<path class="st0" d="M611.5,249.5v-16.7c0-11.2-5.3-16.4-16.6-16.4h-33.9v92h17v-40.8h6.4l13,40.8H615l-14.3-43.2
		C608.8,262.8,611.5,258.6,611.5,249.5z M594.7,245.3c0,6.7-2,8.7-7.8,8.7H578v-24.5h8.9c5.9,0,7.8,1.8,7.8,7.6V245.3z"/>
	<rect x="623.5" y="216.4" class="st0" width="16.8" height="92"/>
	<path class="st0" d="M666,216.4l-17.9,92h17l2.5-15h15.6l2.2,15h17.2l-17.2-92H666z M669.7,279.2l6.1-39.5l5.6,39.5H669.7z"/>
	<path class="st0" d="M95,308.4h202.9V105.5H95V308.4z M196.4,140.2c36.8,0,66.7,29.9,66.7,66.8c0,36.9-29.8,66.8-66.7,66.8
		c-36.8,0-66.7-29.9-66.7-66.8C129.8,170.1,159.6,140.2,196.4,140.2z"/>
</g>
</svg>
